<svg id="Layer_1" data-name="Layer 1" xmlns="http://www.w3.org/2000/svg" viewBox="0 0 411.61 85.33"><defs><style>.cls-1{fill:#282828;stroke:#282828;stroke-miterlimit:10;}.cls-2{fill:#f7941d;}.cls-3{fill:#fff;}</style></defs><title>ChewTube logo</title><path class="cls-1" d="M370.11,265.28l7.79,4.41q-1.79,11.63-6,17.28t-10.58,5.65q-7.93,0-13-9.67t-5.11-26.44q0-17.74,5.13-27.55t13.5-9.81q7.3,0,11.87,7.71,2.72,4.56,4.07,13.08l-8,3.39a19.39,19.39,0,0,0-2.95-8.72,6.53,6.53,0,0,0-5.44-3.2q-4.43,0-7.18,5.67t-2.76,18.37q0,13.47,2.72,19.19t7.06,5.72q3.2,0,5.51-3.63T370.11,265.28Z" transform="translate(-204.3 -211.87)"/><path class="cls-1" d="M392.35,220.36v26.12q3.69-7.71,8.82-7.71a7.28,7.28,0,0,1,4.75,1.74,10.8,10.8,0,0,1,3.19,4.46,24,24,0,0,1,1.47,6,95.33,95.33,0,0,1,.39,10.23V291.4h-7.63V264.22a71.07,71.07,0,0,0-.43-10.27,7.48,7.48,0,0,0-1.53-3.46,3.48,3.48,0,0,0-2.76-1.28,4.49,4.49,0,0,0-3.39,1.65,10.53,10.53,0,0,0-2.19,5,51.78,51.78,0,0,0-.69,9.81V291.4h-7.63v-71Z" transform="translate(-204.3 -211.87)"/><path class="cls-1" d="M435.42,275l7.6,2.28q-1.47,7.46-4.63,11.36a9.79,9.79,0,0,1-7.92,3.9q-7.52,0-11.13-8.77-2.85-7-2.85-17.74,0-12.79,3.75-20t9.48-7.25q6.44,0,10.16,7.58t3.56,23.24H424.31q.08,6.06,1.85,9.43t4.4,3.37a3.59,3.59,0,0,0,3-1.74A14,14,0,0,0,435.42,275Zm.43-13.76q-.08-5.91-1.71-9t-4-3.08q-2.5,0-4.13,3.25a19.67,19.67,0,0,0-1.6,8.82Z" transform="translate(-204.3 -211.87)"/><path class="cls-1" d="M455,291.4l-9.12-51.47h7.41l5.4,33.73,5-33.73H471l4.81,33.73,5.51-33.73h7.52l-9.26,51.47h-7.33l-5-33.1-4.89,33.1Z" transform="translate(-204.3 -211.87)"/><path class="cls-1" d="M501.92,291.4v-59H490.11v-12h31.63v12H510v59Z" transform="translate(-204.3 -211.87)"/><path class="cls-1" d="M541.73,291.4V283.7a16.89,16.89,0,0,1-4.14,6.49,7.91,7.91,0,0,1-5.42,2.37,7.24,7.24,0,0,1-5.21-2.28,13.29,13.29,0,0,1-3.34-6.4,49.06,49.06,0,0,1-1-11.39V239.94h7.63v23.65q0,10.86.42,13.3a8.59,8.59,0,0,0,1.53,3.88,3.43,3.43,0,0,0,2.82,1.43,4.47,4.47,0,0,0,3.5-1.91,10.79,10.79,0,0,0,2.12-4.75q.57-2.83.57-13.88V239.94h7.63V291.4Z" transform="translate(-204.3 -211.87)"/><path class="cls-1" d="M556.39,291.4v-71H564v25.59q3.53-7.17,8.36-7.17,5.27,0,8.72,6.81t3.45,19.55q0,13.18-3.52,20.3t-8.54,7.12a7.24,7.24,0,0,1-4.87-2.21,17.68,17.68,0,0,1-4.14-6.52v7.56ZM564,264.55q0,8,1.41,11.82,2,5.43,5.27,5.43,2.53,0,4.3-3.85t1.78-12.14q0-8.82-1.79-12.72t-4.59-3.9q-2.74,0-4.56,3.8T564,264.55Z" transform="translate(-204.3 -211.87)"/><path class="cls-1" d="M607.39,275l7.6,2.28q-1.47,7.46-4.63,11.36a9.79,9.79,0,0,1-7.92,3.9q-7.52,0-11.13-8.77-2.85-7-2.85-17.74,0-12.79,3.75-20t9.48-7.25q6.44,0,10.16,7.58t3.56,23.24H596.28q.08,6.06,1.85,9.43t4.4,3.37a3.59,3.59,0,0,0,3-1.74A14,14,0,0,0,607.39,275Zm.43-13.76q-.08-5.91-1.71-9t-4-3.08q-2.5,0-4.13,3.25a19.67,19.67,0,0,0-1.6,8.82Z" transform="translate(-204.3 -211.87)"/><path class="cls-2" d="M321.6,242.9c-6.89,0-12-5.63-12.3-12.3a10.53,10.53,0,0,1,.72-4.25q-.42,0-.85,0c-6.27,0-10.91-5.12-11.18-11.18a9.43,9.43,0,0,1,.22-2.44c-14.43-.9-33.36-.9-33.36-.9s-37.87,0-47.32,2.55a15.22,15.22,0,0,0-10.71,10.78c-2.53,9.51-2.53,29.34-2.53,29.34s0,19.83,2.53,29.34a15.22,15.22,0,0,0,10.71,10.78c9.44,2.55,47.32,2.55,47.32,2.55s37.87,0,47.32-2.55a15.22,15.22,0,0,0,10.71-10.78c2.53-9.51,2.53-29.34,2.53-29.34s0-5.54-.37-12.17A11.62,11.62,0,0,1,321.6,242.9Z" transform="translate(-204.3 -211.87)"/><polygon id="_Path_" data-name="&lt;Path&gt;" class="cls-3" points="48.17 60.67 79.82 42.66 48.17 24.66 48.17 60.67"/></svg>